<svg xmlns="http://www.w3.org/2000/svg" width="960" height="320" viewBox="0 0 960 320" role="img" aria-label="lReDragol (Drago): 50 commits in the last 14 days">
  <defs>
    <linearGradient id="cardBg" x1="0%" y1="0%" x2="100%" y2="100%">
      <stop offset="0%" stop-color="#0d1117"/>
      <stop offset="100%" stop-color="#111926"/>
    </linearGradient>
    <linearGradient id="barGradient" x1="0%" y1="0%" x2="0%" y2="100%">
      <stop offset="0%" stop-color="#3fb950"/>
      <stop offset="100%" stop-color="#238636"/>
    </linearGradient>
    <linearGradient id="areaGradient" x1="0%" y1="0%" x2="0%" y2="100%">
      <stop offset="0%" stop-color="#2ea043" stop-opacity="0.38"/>
      <stop offset="100%" stop-color="#2ea043" stop-opacity="0"/>
    </linearGradient>
    <filter id="glow" x="-20%" y="-20%" width="140%" height="140%">
      <feGaussianBlur stdDeviation="8" result="blur"/>
      <feMerge>
        <feMergeNode in="blur"/>
        <feMergeNode in="SourceGraphic"/>
      </feMerge>
    </filter>
  </defs>

  <rect width="960" height="320" rx="24" fill="url(#cardBg)"/>
  <rect x="1" y="1" width="958" height="318" rx="23" fill="none" stroke="#30363d"/>

  <text x="40" y="56" fill="#f0f6fc" font-family="Segoe UI, DejaVu Sans, Arial, sans-serif" font-size="28" font-weight="700">lReDragol (Drago)</text>
  <text x="40" y="92" fill="#8b949e" font-family="Segoe UI, DejaVu Sans, Arial, sans-serif" font-size="16">Joined GitHub 2 years ago</text>

  <text x="40" y="136" fill="#8b949e" font-family="Segoe UI, DejaVu Sans, Arial, sans-serif" font-size="14" font-weight="700" letter-spacing="0.08em">REPOSITORIES</text>
  <text x="40" y="176" fill="#f0f6fc" font-family="Segoe UI, DejaVu Sans, Arial, sans-serif" font-size="34" font-weight="700">22</text>
  <text x="40" y="202" fill="#8b949e" font-family="Segoe UI, DejaVu Sans, Arial, sans-serif" font-size="16">Public Repos</text>

  <text x="206" y="176" fill="#f0f6fc" font-family="Segoe UI, DejaVu Sans, Arial, sans-serif" font-size="34" font-weight="700">17</text>
  <text x="206" y="202" fill="#8b949e" font-family="Segoe UI, DejaVu Sans, Arial, sans-serif" font-size="16">Private Repos</text>

  <text x="40" y="254" fill="#8b949e" font-family="Segoe UI, DejaVu Sans, Arial, sans-serif" font-size="14" font-weight="700" letter-spacing="0.08em">DAILY COMMITS</text>
  <text x="40" y="290" fill="#3fb950" font-family="Segoe UI, DejaVu Sans, Arial, sans-serif" font-size="30" font-weight="700">50</text>
  <text x="118" y="290" fill="#8b949e" font-family="Segoe UI, DejaVu Sans, Arial, sans-serif" font-size="16">in the last 14 days</text>

  <text x="420.0" y="56" fill="#f0f6fc" font-family="Segoe UI, DejaVu Sans, Arial, sans-serif" font-size="20" font-weight="700">Daily Commits (14d)</text>
  <text x="912.0" y="56" fill="#8b949e" font-family="Segoe UI, DejaVu Sans, Arial, sans-serif" font-size="14" text-anchor="end">Peak day: 12</text>

  <line x1="420.0" y1="258.0" x2="912.0" y2="258.0" stroke="#21262d" stroke-width="1"/>
  <line x1="420.0" y1="215.5" x2="912.0" y2="215.5" stroke="#21262d" stroke-width="1"/>
  <line x1="420.0" y1="173.0" x2="912.0" y2="173.0" stroke="#21262d" stroke-width="1"/>
  <line x1="420.0" y1="130.5" x2="912.0" y2="130.5" stroke="#21262d" stroke-width="1"/>
  <line x1="420.0" y1="88.0" x2="912.0" y2="88.0" stroke="#21262d" stroke-width="1"/>
  <path d="M 420.0,258.0 L 420.0,258.0 L 457.8,245.3 L 495.7,245.3 L 533.5,194.7 L 571.4,245.3 L 609.2,258.0 L 647.1,258.0 L 684.9,245.3 L 722.8,258.0 L 760.6,245.3 L 798.5,144.0 L 836.3,118.7 L 874.2,106.0 L 912.0,156.7 L 912.0,258.0 Z" fill="url(#areaGradient)"/>
  <rect x="413.0" y="258.0" width="14" height="0.0" rx="7" fill="url(#barGradient)" opacity="0.92"/>
  <rect x="450.8" y="245.3" width="14" height="12.7" rx="7" fill="url(#barGradient)" opacity="0.92"/>
  <rect x="488.7" y="245.3" width="14" height="12.7" rx="7" fill="url(#barGradient)" opacity="0.92"/>
  <rect x="526.5" y="194.7" width="14" height="63.3" rx="7" fill="url(#barGradient)" opacity="0.92"/>
  <rect x="564.4" y="245.3" width="14" height="12.7" rx="7" fill="url(#barGradient)" opacity="0.92"/>
  <rect x="602.2" y="258.0" width="14" height="0.0" rx="7" fill="url(#barGradient)" opacity="0.92"/>
  <rect x="640.1" y="258.0" width="14" height="0.0" rx="7" fill="url(#barGradient)" opacity="0.92"/>
  <rect x="677.9" y="245.3" width="14" height="12.7" rx="7" fill="url(#barGradient)" opacity="0.92"/>
  <rect x="715.8" y="258.0" width="14" height="0.0" rx="7" fill="url(#barGradient)" opacity="0.92"/>
  <rect x="753.6" y="245.3" width="14" height="12.7" rx="7" fill="url(#barGradient)" opacity="0.92"/>
  <rect x="791.5" y="144.0" width="14" height="114.0" rx="7" fill="url(#barGradient)" opacity="0.92"/>
  <rect x="829.3" y="118.7" width="14" height="139.3" rx="7" fill="url(#barGradient)" opacity="0.92"/>
  <rect x="867.2" y="106.0" width="14" height="152.0" rx="7" fill="url(#barGradient)" opacity="0.92"/>
  <rect x="905.0" y="156.7" width="14" height="101.3" rx="7" fill="url(#barGradient)" opacity="0.92"/>
  <polyline points="420.0,258.0 457.8,245.3 495.7,245.3 533.5,194.7 571.4,245.3 609.2,258.0 647.1,258.0 684.9,245.3 722.8,258.0 760.6,245.3 798.5,144.0 836.3,118.7 874.2,106.0 912.0,156.7" fill="none" stroke="#56d364" stroke-width="3" stroke-linecap="round" stroke-linejoin="round" filter="url(#glow)"/>
  <text x="420.0" y="286.0" fill="#8b949e" font-family="Segoe UI, DejaVu Sans, Arial, sans-serif" font-size="13" text-anchor="start">14d ago</text>
  <text x="666.0" y="286.0" fill="#8b949e" font-family="Segoe UI, DejaVu Sans, Arial, sans-serif" font-size="13" text-anchor="middle">7d ago</text>
  <text x="912.0" y="286.0" fill="#8b949e" font-family="Segoe UI, DejaVu Sans, Arial, sans-serif" font-size="13" text-anchor="end">Today</text>
</svg>
